FILE "Wizard's Harmony 2 (Japan, Asia).bin" BINARY
  TRACK 01 MODE2/2352
    INDEX 01 00:00:00
  TRACK 02 AUDIO
    INDEX 00 41:16:12
    INDEX 01 41:18:12
  TRACK 03 AUDIO
    INDEX 00 44:27:36
    INDEX 01 44:29:36
  TRACK 04 AUDIO
    INDEX 00 47:18:40
    INDEX 01 47:20:40
